<svg width="77" height="77" viewBox="0 0 77 77" fill="none" xmlns="http://www.w3.org/2000/svg">
<g filter="url(#filter0_d_430_436)">
<rect x="6" y="3" width="65" height="65" rx="11" fill="#2D7A35"/>
</g>
<g clip-path="url(#clip0_430_436)">
<path d="M37.505 25C32.806 25 29 25.532 29 29.253V39.884C29.0009 40.3301 29.0961 40.7709 29.2793 41.1776C29.4625 41.5843 29.7296 41.9477 30.063 42.244V44.136C30.0635 44.4179 30.1757 44.688 30.3749 44.8874C30.5741 45.0868 30.8441 45.1992 31.126 45.2H32.19C32.4719 45.2 32.7423 45.088 32.9416 44.8887C33.141 44.6893 33.253 44.4189 33.253 44.137V43.074H41.758V44.137C41.758 44.4189 41.87 44.6893 42.0693 44.8887C42.2687 45.088 42.5391 45.2 42.821 45.2H43.884C44.1657 45.1992 44.4356 45.087 44.6348 44.8878C44.834 44.6886 44.9462 44.4187 44.947 44.137V42.245C45.2804 41.9487 45.5475 41.5853 45.7307 41.1786C45.9139 40.7719 46.0091 40.3311 46.01 39.885V29.253C46.011 25.532 42.2 25 37.505 25ZM32.721 40.948C32.4055 40.948 32.0972 40.8545 31.8349 40.6792C31.5726 40.5039 31.3681 40.2548 31.2474 39.9634C31.1267 39.6719 31.0951 39.3512 31.1567 39.0418C31.2182 38.7324 31.3701 38.4482 31.5932 38.2252C31.8162 38.0021 32.1004 37.8502 32.4098 37.7886C32.7192 37.7271 33.0399 37.7587 33.3314 37.8794C33.6228 38.0001 33.8719 38.2046 34.0472 38.4669C34.2225 38.7292 34.316 39.0375 34.316 39.353C34.3163 39.5625 34.2752 39.7701 34.1951 39.9637C34.1151 40.1573 33.9976 40.3333 33.8494 40.4814C33.7013 40.6296 33.5253 40.7471 33.3317 40.8271C33.1381 40.9072 32.9305 40.9483 32.721 40.948ZM42.29 40.948C41.9745 40.948 41.6662 40.8545 41.4039 40.6792C41.1416 40.5039 40.9371 40.2548 40.8164 39.9634C40.6957 39.6719 40.6641 39.3512 40.7256 39.0418C40.7872 38.7324 40.9391 38.4482 41.1622 38.2252C41.3852 38.0021 41.6694 37.8502 41.9788 37.7886C42.2882 37.7271 42.6089 37.7587 42.9004 37.8794C43.1918 38.0001 43.4409 38.2046 43.6162 38.4669C43.7915 38.7292 43.885 39.0375 43.885 39.353C43.8853 39.5625 43.8442 39.7701 43.7641 39.9637C43.6841 40.1573 43.5666 40.3333 43.4184 40.4814C43.2703 40.6296 43.0943 40.7471 42.9007 40.8271C42.7071 40.9072 42.4995 40.9483 42.29 40.948ZM43.885 34.569H31.126V29.253H43.884L43.885 34.569Z" stroke="white" stroke-width="1.5"/>
</g>
<defs>
<filter id="filter0_d_430_436" x="0" y="0" width="77" height="77" filterUnits="userSpaceOnUse" color-interpolation-filters="sRGB">
<feFlood flood-opacity="0" result="BackgroundImageFix"/>
<feColorMatrix in="SourceAlpha" type="matrix" values="0 0 0 0 0 0 0 0 0 0 0 0 0 0 0 0 0 0 127 0" result="hardAlpha"/>
<feOffset dy="3"/>
<feGaussianBlur stdDeviation="3"/>
<feComposite in2="hardAlpha" operator="out"/>
<feColorMatrix type="matrix" values="0 0 0 0 0 0 0 0 0 0 0 0 0 0 0 0 0 0 0.16 0"/>
<feBlend mode="normal" in2="BackgroundImageFix" result="effect1_dropShadow_430_436"/>
<feBlend mode="normal" in="SourceGraphic" in2="effect1_dropShadow_430_436" result="shape"/>
</filter>
<clipPath id="clip0_430_436">
<rect width="19" height="22" fill="white" transform="translate(28 24)"/>
</clipPath>
</defs>
</svg>
