<svg width="60" height="48" viewBox="0 0 60 48" fill="none" xmlns="http://www.w3.org/2000/svg">
<g clip-path="url(#clip0_7_11)">
<path d="M56 48H4C2.93913 48 1.92172 47.4943 1.17157 46.5941C0.421427 45.6939 0 44.473 0 43.2L0 4.8C0 3.52696 0.421427 2.30606 1.17157 1.40589C1.92172 0.505713 2.93913 0 4 0L56 0C57.0609 0 58.0783 0.505713 58.8284 1.40589C59.5786 2.30606 60 3.52696 60 4.8V43.2C60 44.473 59.5786 45.6939 58.8284 46.5941C58.0783 47.4943 57.0609 48 56 48ZM23.3867 20.65C23.341 20.6507 23.2961 20.6637 23.2551 20.6879C23.2142 20.7121 23.1783 20.747 23.15 20.79C23.0843 20.8702 23.0468 20.9776 23.045 21.09C23.045 21.132 23.2083 21.73 23.5583 22.956L24.315 25.608L24.6667 26.844C25.0611 28.2307 25.2672 28.968 25.285 29.056C24.5091 30.2088 23.8076 31.431 23.1867 32.712L23.1233 32.852L23.12 32.902C23.12 33.102 23.255 33.266 23.4233 33.266L23.4683 33.262H23.4667H25.4967C25.5913 33.2613 25.6842 33.2318 25.7667 33.1761C25.8492 33.1205 25.9186 33.0406 25.9683 32.944L25.97 32.942L32.69 21.304C32.7253 21.2482 32.7446 21.1801 32.745 21.11L32.7433 21.08V21.082C32.7411 20.9697 32.7036 20.8626 32.6383 20.782C32.6103 20.7392 32.5747 20.7043 32.534 20.6801C32.4934 20.6559 32.4487 20.6429 32.4033 20.642H30.3717C30.2768 20.6427 30.1837 20.6723 30.1009 20.7279C30.0181 20.7835 29.9484 20.8633 29.8983 20.96L29.8967 20.962L27.0967 25.894L25.9383 21.15C25.9086 21.0054 25.8395 20.8769 25.742 20.7849C25.6444 20.6929 25.5241 20.6426 25.4 20.642L25.3567 20.644H25.3583L23.3867 20.65ZM46.6833 20.428H46.64C45.3767 20.428 44.2417 21.086 43.4583 22.13L43.455 22.134C42.5983 23.1973 42.1201 24.619 42.1217 26.098V26.152V26.15C42.1183 26.208 42.1183 26.278 42.1183 26.346C42.1183 27.42 42.4667 28.398 43.0333 29.124L43.0317 29.122C43.354 29.4988 43.7377 29.7916 44.1587 29.9823C44.5797 30.1729 45.0289 30.2573 45.4783 30.23H45.47C46.0317 30.222 46.565 30.084 47.0517 29.836L47.025 29.848C47.5167 29.626 47.9333 29.28 48.2617 28.84L48.265 28.836C48.2483 28.95 48.23 29.046 48.2083 29.138L48.2117 29.118C48.1819 29.2405 48.164 29.3666 48.1583 29.494V29.498C48.1583 29.834 48.2733 30.004 48.5017 30.004H50.32C50.391 30.0116 50.4626 30.0021 50.5305 29.976C50.5983 29.9499 50.6612 29.9077 50.7152 29.852C50.7693 29.7962 50.8135 29.7281 50.8453 29.6514C50.877 29.5748 50.8956 29.4914 50.9 29.406V29.404L51.98 21.15C51.9902 21.0877 51.9884 21.0235 51.9749 20.9622C51.9613 20.9008 51.9363 20.844 51.9017 20.796C51.8717 20.7464 51.8323 20.7061 51.7868 20.6783C51.7414 20.6505 51.691 20.636 51.64 20.636H49.635C49.39 20.636 49.235 20.986 49.185 21.68C48.8916 21.2283 48.5058 20.8754 48.0651 20.6557C47.6244 20.4359 47.1438 20.3568 46.67 20.426L46.6833 20.424V20.428ZM16.745 20.428H16.6983C15.4367 20.428 14.3017 21.086 13.5217 22.13L13.5183 22.134C12.6616 23.1973 12.1834 24.619 12.185 26.098V26.152V26.15C12.1629 26.6936 12.2324 27.237 12.3894 27.7477C12.5463 28.2583 12.7874 28.7257 13.0983 29.122L13.0967 29.12C13.6867 29.808 14.4933 30.232 15.3833 30.232L15.5433 30.228H15.535C16.0883 30.218 16.6133 30.08 17.0917 29.834L17.065 29.846C17.5633 29.618 17.9867 29.274 18.3283 28.836L18.33 28.834C18.2683 29.03 18.23 29.258 18.225 29.494V29.498C18.225 29.834 18.3417 30.004 18.5683 30.004H20.385C20.456 30.0116 20.5276 30.0021 20.5955 29.976C20.6633 29.9499 20.7262 29.9077 20.7802 29.852C20.8343 29.7962 20.8785 29.7281 20.9103 29.6514C20.942 29.5748 20.9606 29.4914 20.965 29.406V29.404L22.0467 21.15C22.0557 21.0882 22.0533 21.0247 22.0394 20.9642C22.0256 20.9037 22.0008 20.8476 21.9667 20.8C21.9367 20.7504 21.8973 20.7101 21.8518 20.6823C21.8064 20.6545 21.756 20.64 21.705 20.64H19.7C19.455 20.64 19.3 20.99 19.2517 21.684C18.9552 21.2359 18.5688 20.8856 18.1286 20.6659C17.6883 20.4462 17.2088 20.3643 16.735 20.428L16.7483 20.426L16.745 20.428ZM54.3533 16L54.3267 15.998C54.2471 15.9977 54.1703 16.0333 54.1117 16.0978C54.053 16.1622 54.0167 16.2509 54.01 16.346L52.2967 29.504C52.2826 29.5673 52.2824 29.6339 52.2962 29.6974C52.3099 29.7608 52.337 29.8189 52.375 29.866C52.4065 29.9108 52.4458 29.9467 52.4902 29.9713C52.5345 29.9958 52.5828 30.0083 52.6317 30.008H54.3817L54.435 30.012C54.5676 30.012 54.6948 29.9488 54.7886 29.8363C54.8823 29.7237 54.935 29.5711 54.935 29.412V29.408L56.645 16.478L56.6467 16.434C56.6465 16.32 56.6155 16.2091 56.5583 16.118V16.12C56.5284 16.0817 56.4923 16.0511 56.4521 16.0301C56.412 16.0092 56.3688 15.9982 56.325 15.998L56.3 16H54.3533ZM34.9033 16C34.8318 15.9887 34.7591 15.9957 34.6899 16.0204C34.6208 16.0452 34.5568 16.0871 34.502 16.1435C34.4473 16.2 34.4031 16.2696 34.3723 16.3479C34.3415 16.4262 34.3248 16.5114 34.3233 16.598L32.6117 29.502C32.6028 29.5634 32.6053 29.6263 32.6188 29.6864C32.6323 29.7465 32.6566 29.8023 32.69 29.85C32.7194 29.8998 32.7584 29.9403 32.8037 29.9681C32.849 29.996 32.8991 30.0103 32.95 30.01H35.125C35.2226 30.0099 35.3171 29.9692 35.3925 29.8948C35.4679 29.8204 35.5194 29.7169 35.5383 29.602V29.598L36.0133 25.93C36.0275 25.7694 36.094 25.622 36.1983 25.52C36.3121 25.4097 36.4502 25.3385 36.595 25.314H36.6C36.735 25.284 36.89 25.268 37.0483 25.266C37.1883 25.266 37.3567 25.276 37.55 25.298C37.7613 25.3272 37.974 25.3405 38.1867 25.338C39.4078 25.3404 40.5844 24.7881 41.48 23.792L41.4767 23.796C41.9233 23.2277 42.2681 22.5556 42.49 21.8212C42.7118 21.0869 42.806 20.3057 42.7667 19.526V19.542C42.8025 19.0264 42.7289 18.5082 42.5525 18.036C42.3762 17.5639 42.1029 17.153 41.7583 16.842L41.7517 16.836C40.9564 16.2325 40.0247 15.9397 39.085 15.998H39.095L34.9033 16ZM4.93333 16C4.86361 15.991 4.7931 15.9997 4.72637 16.0256C4.65965 16.0515 4.59819 16.0939 4.54601 16.1501C4.49383 16.2063 4.45208 16.275 4.42348 16.3518C4.39488 16.4287 4.38007 16.5119 4.38 16.596V16.6L2.66667 29.504C2.65773 29.5654 2.66011 29.6283 2.67365 29.6884C2.68718 29.7486 2.71154 29.8044 2.745 29.852C2.77444 29.9018 2.81345 29.9423 2.8587 29.9701C2.90396 29.998 2.95414 30.0123 3.005 30.012H5.01167C5.08321 30.0233 5.15592 30.0163 5.22507 29.9916C5.29422 29.9668 5.35825 29.9249 5.41298 29.8685C5.46771 29.812 5.51191 29.7424 5.54269 29.6641C5.57348 29.5858 5.59017 29.5006 5.59167 29.414L6.06667 25.936C6.0811 25.776 6.14685 25.6289 6.25 25.526C6.36372 25.4157 6.5019 25.3445 6.64667 25.32H6.65167C6.79915 25.2888 6.94858 25.2727 7.09833 25.272H7.1C7.24 25.272 7.40667 25.282 7.6 25.304C7.81077 25.3331 8.02285 25.3464 8.235 25.344C9.50667 25.344 10.6633 24.758 11.53 23.798L11.5267 23.802C11.9731 23.2335 12.3179 22.5615 12.5397 21.8271C12.7616 21.0928 12.8558 20.3117 12.8167 19.532V19.548C12.8525 19.0324 12.7789 18.5142 12.6025 18.042C12.4262 17.5698 12.1529 17.159 11.8083 16.848L11.8017 16.842C11.0098 16.2407 10.0826 15.9474 9.14667 16.002H9.15667L4.93333 16ZM46.5733 27.67L46.4933 27.672C46.0675 27.6725 45.6553 27.4918 45.33 27.162L45.3333 27.164C45.1829 26.9977 45.0629 26.7958 44.9808 26.571C44.8988 26.3462 44.8565 26.1034 44.8567 25.858L44.8583 25.768V25.714C44.8583 24.966 45.11 24.288 45.5183 23.796C45.92 23.302 46.48 22.996 47.1 22.996H47.155H47.1517L47.2083 22.994C47.6567 22.994 48.065 23.192 48.3783 23.518L48.3767 23.516C48.5314 23.688 48.6549 23.8965 48.7392 24.1285C48.8235 24.3605 48.8669 24.6109 48.8667 24.864L48.865 24.96V24.956V25.004C48.865 25.742 48.61 26.41 48.1983 26.884C47.9904 27.1326 47.7437 27.3296 47.4723 27.4638C47.2009 27.598 46.9102 27.6667 46.6167 27.666H46.575L46.5733 27.67ZM16.6083 27.67L16.525 27.672C16.0883 27.672 15.6867 27.48 15.38 27.162L15.3817 27.164C15.2351 26.9958 15.1185 26.7937 15.0388 26.57C14.9592 26.3462 14.9182 26.1053 14.9183 25.862L14.92 25.768V25.714C14.92 24.966 15.1717 24.288 15.58 23.796C15.9817 23.302 16.54 22.996 17.16 22.996H17.2183H17.215L17.2717 22.994C17.72 22.994 18.1283 23.192 18.4417 23.518L18.44 23.516C18.5943 23.6878 18.7174 23.8961 18.8014 24.1277C18.8855 24.3594 18.9287 24.6094 18.9283 24.862L18.9267 24.96V24.956V25.026C18.9267 25.764 18.6717 26.428 18.26 26.902C17.8328 27.3953 17.2629 27.6706 16.67 27.67H16.6083ZM36.4533 22.55L36.9017 19.168C36.9052 19.1182 36.9169 19.0697 36.9361 19.0254C36.9553 18.981 36.9816 18.9417 37.0135 18.9095C37.0454 18.8774 37.0823 18.8531 37.122 18.8381C37.1617 18.8231 37.2035 18.8176 37.245 18.822H37.7183L37.82 18.82C38.1083 18.82 38.3933 18.844 38.6717 18.89L38.64 18.886C38.8983 18.942 39.1233 19.082 39.3 19.282C39.4007 19.3962 39.4808 19.5338 39.5356 19.6866C39.5903 19.8393 39.6185 20.0038 39.6183 20.17L39.6167 20.246V20.242C39.6517 20.5761 39.6174 20.9155 39.5168 21.2298C39.4162 21.5442 39.2524 21.8239 39.04 22.044L39.0383 22.046C38.5073 22.4097 37.8984 22.5767 37.2883 22.526H37.2983L36.4567 22.558L36.4533 22.55ZM6.48833 22.55L6.93667 19.168C6.94002 19.1181 6.95159 19.0695 6.97071 19.025C6.98984 18.9806 7.01613 18.9411 7.04807 18.9089C7.08001 18.8767 7.11696 18.8524 7.15677 18.8375C7.19659 18.8226 7.23847 18.8173 7.28 18.822H7.77833C8.31194 18.7751 8.84611 18.9037 9.32333 19.194L9.30667 19.184C9.62167 19.426 9.72833 19.94 9.62333 20.716C9.61529 21.0057 9.54931 21.2889 9.43097 21.5416C9.31262 21.7943 9.14538 22.0091 8.94333 22.168L8.93833 22.172C8.14837 22.5211 7.30254 22.6497 6.465 22.548L6.48833 22.55Z" fill="#DFD9D9"/>
</g>
<defs>
<clipPath id="clip0_7_11">
<rect width="60" height="48" fill="white"/>
</clipPath>
</defs>
</svg>
