<svg width="64" height="57" viewBox="0 0 64 57" fill="none" xmlns="http://www.w3.org/2000/svg">
<g id="Vector (Stroke)" filter="url(#filter0_d_125_67)">
<path fill-rule="evenodd" clip-rule="evenodd" d="M3.85706 9.625C3.85706 4.30926 8.16632 0 13.4821 0H50.2321C55.5478 0 59.8571 4.30926 59.8571 9.625V39.375C59.8571 44.6907 55.5478 49 50.2321 49H13.4821C8.16632 49 3.85706 44.6907 3.85706 39.375V9.625ZM13.4821 5.25C11.0658 5.25 9.10706 7.20876 9.10706 9.625V27.3813L18.7942 17.6941C19.8194 16.669 21.4814 16.669 22.5066 17.6941L36.8068 31.9944L46.1573 22.6438C46.6496 22.1516 47.3173 21.875 48.0135 21.875C48.7097 21.875 49.3773 22.1516 49.8696 22.6438L54.6071 27.3813V9.625C54.6071 7.20875 52.6483 5.25 50.2321 5.25H13.4821ZM54.6071 34.8059L48.0135 28.2123L38.7327 37.4931C38.2024 38.0234 37.5016 38.2794 36.8068 38.261C36.112 38.2794 35.4112 38.0234 34.8809 37.4931L20.6504 23.2626L9.10706 34.8059V39.375C9.10706 41.7912 11.0658 43.75 13.4821 43.75H50.2321C52.6483 43.75 54.6071 41.7912 54.6071 39.375V34.8059ZM38.8571 12.25C37.8906 12.25 37.1071 13.0335 37.1071 14C37.1071 14.9665 37.8906 15.75 38.8571 15.75C39.8236 15.75 40.6071 14.9665 40.6071 14C40.6071 13.0335 39.8236 12.25 38.8571 12.25ZM31.8571 14C31.8571 10.134 34.9911 7 38.8571 7C42.723 7 45.8571 10.134 45.8571 14C45.8571 17.866 42.723 21 38.8571 21C34.9911 21 31.8571 17.866 31.8571 14Z" fill="white"/>
</g>
<defs>
<filter id="filter0_d_125_67" x="0.0139184" y="0" width="63.6863" height="56.6863" filterUnits="userSpaceOnUse" color-interpolation-filters="sRGB">
<feFlood flood-opacity="0" result="BackgroundImageFix"/>
<feColorMatrix in="SourceAlpha" type="matrix" values="0 0 0 0 0 0 0 0 0 0 0 0 0 0 0 0 0 0 127 0" result="hardAlpha"/>
<feOffset dy="3.84314"/>
<feGaussianBlur stdDeviation="1.92157"/>
<feComposite in2="hardAlpha" operator="out"/>
<feColorMatrix type="matrix" values="0 0 0 0 0 0 0 0 0 0 0 0 0 0 0 0 0 0 0.25 0"/>
<feBlend mode="normal" in2="BackgroundImageFix" result="effect1_dropShadow_125_67"/>
<feBlend mode="normal" in="SourceGraphic" in2="effect1_dropShadow_125_67" result="shape"/>
</filter>
</defs>
</svg>
