<svg width="256" height="302" viewBox="0 0 256 302" fill="none" xmlns="http://www.w3.org/2000/svg">
<g clip-path="url(#clip0_7_6)">
<path d="M217.168 23.507C203.234 7.62499 178.046 0.815994 145.823 0.815994H52.303C49.1149 0.816112 46.0313 1.95353 43.6068 4.02377C41.1822 6.094 39.5757 8.96124 39.076 12.11L0.136023 259.077C-0.637977 263.947 3.13302 268.357 8.06902 268.357H65.805L80.305 176.386L79.855 179.266C80.888 172.765 86.448 167.97 93.032 167.97H120.468C174.366 167.97 216.569 146.078 228.897 82.749C229.263 80.876 229.58 79.053 229.854 77.272C228.298 76.448 228.298 76.448 229.854 77.272C233.525 53.865 229.829 37.932 217.168 23.507Z" fill="#27346A"/>
<path d="M102.397 68.84C103.975 68.0884 105.702 67.6989 107.45 67.7H180.768C189.45 67.7 197.548 68.265 204.948 69.456C207.019 69.7862 209.079 70.1803 211.125 70.638C214.025 71.278 216.892 72.0613 219.715 72.985C223.353 74.2 226.741 75.615 229.855 77.272C233.525 53.856 229.829 37.932 217.168 23.507C203.226 7.62499 178.046 0.815994 145.823 0.815994H52.295C45.71 0.815994 40.108 5.60999 39.076 12.11L0.136029 259.068C-0.637971 263.946 3.13303 268.35 8.06103 268.35H65.805L95.888 77.58C96.1838 75.7049 96.9308 73.9297 98.0646 72.4072C99.1985 70.8848 100.685 69.6606 102.397 68.84Z" fill="#27346A"/>
<path d="M228.897 82.749C216.569 146.069 174.367 167.97 120.468 167.97H93.024C86.44 167.97 80.879 172.765 79.856 179.266L61.817 293.621C61.143 297.883 64.439 301.745 68.751 301.745H117.421C120.209 301.744 122.905 300.749 125.025 298.938C127.144 297.127 128.548 294.619 128.984 291.865L129.458 289.385L138.631 231.249L139.222 228.036C139.658 225.282 141.061 222.775 143.181 220.964C145.3 219.153 147.996 218.157 150.784 218.156H158.068C205.215 218.156 242.132 199.002 252.92 143.606C257.423 120.456 255.093 101.128 243.181 87.552C239.568 83.44 235.081 80.044 229.854 77.272C229.571 79.062 229.264 80.876 228.897 82.749Z" fill="#2790C3"/>
<path d="M216.952 72.128C215.03 71.5667 213.089 71.0698 211.134 70.638C209.087 70.1878 207.027 69.7963 204.957 69.464C197.549 68.265 189.457 67.699 180.767 67.699H107.458C105.708 67.695 103.981 68.0879 102.405 68.848C100.691 69.6661 99.2028 70.8895 98.0685 72.4124C96.9341 73.9353 96.1881 75.7118 95.895 77.588L80.313 176.386L79.863 179.266C80.888 172.765 86.448 167.97 93.033 167.97H120.477C174.375 167.97 216.577 146.078 228.905 82.749C229.272 80.876 229.58 79.061 229.863 77.272C226.741 75.624 223.362 74.2 219.723 72.993C218.805 72.6886 217.881 72.4002 216.953 72.128" fill="#1F264F"/>
</g>
<defs>
<clipPath id="clip0_7_6">
<rect width="256" height="302" fill="white"/>
</clipPath>
</defs>
</svg>
