<svg width="11" height="16" viewBox="0 0 11 16" fill="none" xmlns="http://www.w3.org/2000/svg">
<g clip-path="url(#clip0_165_736)">
<path d="M9.53703 11.554C9.53703 11.4479 9.49488 11.3462 9.41987 11.2711C9.34486 11.1961 9.24311 11.154 9.13703 11.154H1.37203L3.78803 8.73801C3.86335 8.66269 3.90566 8.56053 3.90566 8.45401C3.90566 8.34749 3.86335 8.24533 3.78803 8.17001C3.75073 8.13272 3.70646 8.10313 3.65773 8.08295C3.609 8.06276 3.55677 8.05237 3.50403 8.05237C3.39751 8.05237 3.29535 8.09469 3.22003 8.17001L0.120029 11.27C0.0825371 11.3072 0.0527791 11.3514 0.0324716 11.4002C0.0121642 11.4489 0.00170898 11.5012 0.00170898 11.554C0.00170898 11.6068 0.0121642 11.6591 0.0324716 11.7078C0.0527791 11.7566 0.0825371 11.8008 0.120029 11.838L3.22003 14.938C3.25732 14.9755 3.30164 15.0053 3.35044 15.0256C3.39925 15.046 3.45158 15.0566 3.50447 15.0567C3.55735 15.0568 3.60974 15.0466 3.65865 15.0265C3.70756 15.0064 3.75203 14.9768 3.78953 14.9395C3.82702 14.9022 3.8568 14.8579 3.87717 14.8091C3.89753 14.7603 3.90809 14.7079 3.90823 14.6551C3.90836 14.6022 3.89809 14.5498 3.87798 14.5009C3.85787 14.452 3.82832 14.4075 3.79103 14.37L1.37503 11.954H9.13903C9.24477 11.9535 9.346 11.9111 9.42058 11.8362C9.49516 11.7612 9.53703 11.6597 9.53703 11.554Z" fill="white"/>
<path d="M10.4 4.21599L7.29996 1.11599C7.26267 1.07869 7.21839 1.04911 7.16966 1.02892C7.12093 1.00874 7.0687 0.998352 7.01596 0.998352C6.96322 0.998352 6.91099 1.00874 6.86226 1.02892C6.81353 1.04911 6.76926 1.07869 6.73196 1.11599C6.69466 1.15328 6.66508 1.19756 6.6449 1.24629C6.62471 1.29502 6.61432 1.34725 6.61432 1.39999C6.61432 1.45273 6.62471 1.50496 6.6449 1.55369C6.66508 1.60242 6.69466 1.64669 6.73196 1.68399L9.14596 4.09999L1.27496 4.12099C1.16795 4.12099 1.06531 4.1635 0.989643 4.23917C0.913972 4.31484 0.87146 4.41747 0.87146 4.52449C0.87146 4.6315 0.913972 4.73414 0.989643 4.80981C1.06531 4.88548 1.16795 4.92799 1.27496 4.92799L9.14596 4.90699L6.72996 7.31799C6.65464 7.39371 6.61248 7.49625 6.61276 7.60305C6.61304 7.70985 6.65574 7.81217 6.73146 7.88749C6.80718 7.96281 6.90972 8.00497 7.01652 8.00469C7.12332 8.0044 7.22564 7.96171 7.30096 7.88599L10.401 4.78599C10.4387 4.7487 10.4687 4.70429 10.4891 4.65532C10.5095 4.60636 10.5199 4.55382 10.5198 4.50078C10.5197 4.44774 10.5091 4.39524 10.4885 4.34635C10.4679 4.29745 10.4378 4.25314 10.4 4.21599Z" fill="white"/>
</g>
<defs>
<clipPath id="clip0_165_736">
<rect width="11" height="16" fill="white"/>
</clipPath>
</defs>
</svg>
